<?xml version="1.0" encoding="utf-8"?>
<!-- Generator: Adobe Illustrator 24.0.2, SVG Export Plug-In . SVG Version: 6.00 Build 0)  -->
<svg version="1.1" id="Layer_1" xmlns="http://www.w3.org/2000/svg" xmlns:xlink="http://www.w3.org/1999/xlink" x="0px" y="0px"
	 viewBox="0 0 283.46 283.46" style="enable-background:new 0 0 283.46 283.46;" xml:space="preserve">
<style type="text/css">
	.st0{fill:#FFFFFF;stroke:#010101;stroke-miterlimit:10;}
</style>
<path class="st0" d="M232.48,220.36c0,25.14-40.76,45.52-91.04,45.52c-50.28,0-91.04-20.38-91.04-45.52v-45.81
	c5.71,7.02,13.83,12.85,22.85,17.36c17.89,8.95,42.01,14.23,68.19,14.23c26.18,0,50.3-5.29,68.19-14.23
	c9.02-4.51,17.13-10.34,22.85-17.36V220.36z"/>
<path class="st0" d="M141.45,137.86c26.18,0,50.3-5.29,68.19-14.23c9.02-4.51,17.13-10.34,22.85-17.36v45.81
	c0,5.69-20.32,18.11-30.48,24.55c-15.06,7.53-36.45,12.43-60.55,12.43c-24.1,0-45.5-4.9-60.55-12.43
	c-13.41-6.71-30.48-18.86-30.48-24.55v-45.81c5.71,7.02,13.83,12.85,22.85,17.36C91.15,132.58,115.27,137.86,141.45,137.86z"/>
<path class="st0" d="M202,108.36c-15.06,7.53-36.45,12.43-60.55,12.43c-24.1,0-45.5-4.9-60.55-12.43
	c-5.86-2.29-19.03-9.59-28.19-21.37c-1.56-2.01-2.23-4.56-1.84-7.07c0.26-1.69,0.62-3.43,1.09-4.5
	c7.88-21.13,44.95-37.12,89.49-37.12s81.61,15.99,89.49,37.12c0.47,1.08,0.83,2.82,1.09,4.5c0.39,2.51-0.28,5.07-1.84,7.07
	C221.03,98.77,207.86,106.07,202,108.36z"/>
</svg>
