<?xml version="1.0" encoding="utf-8"?>
<!-- Generator: Adobe Illustrator 24.0.2, SVG Export Plug-In . SVG Version: 6.00 Build 0)  -->
<svg version="1.1" id="Layer_1" xmlns="http://www.w3.org/2000/svg" xmlns:xlink="http://www.w3.org/1999/xlink" x="0px" y="0px"
	 viewBox="0 0 283.46 283.46" style="enable-background:new 0 0 283.46 283.46;" xml:space="preserve">
<style type="text/css">
	.st0{fill:#FFFFFF;stroke:#000000;stroke-miterlimit:10;}
</style>
<path class="st0" d="M235.67,217.19c0,2.36,0.1,4.72-0.02,7.08c-0.54,11.24-8.73,19.59-19.12,19.57
	c-10.32-0.02-18.75-8.26-19.07-19.53c-0.52-18.06-3.63-35.64-11.09-52.02c-22.9-50.27-62.65-76.72-117.35-81.36
	c-3.68-0.31-7.52,0-11-1c-9.05-2.6-14.89-12.19-13.44-21.15c1.58-9.78,9.29-16.49,20.1-16.23c20.66,0.51,41.06,3.08,60.3,11.2
	C192.96,92.44,229.09,144.1,235.67,217.19z"/>
<path class="st0" d="M159.05,220.87c0.34,13.67-6.87,22.61-18.51,22.95c-10.87,0.32-19.12-8.3-20.01-20.9
	c-2.26-31.98-23.14-53.04-54.76-55.24c-13.41-0.93-22.01-9.15-21.42-20.48c0.6-11.59,9.47-18.43,23.39-18.05
	C116.34,130.46,157.84,172.15,159.05,220.87z"/>
<path class="st0" d="M64.03,205.78c10.65,0.22,18.94,9.02,18.52,19.69c-0.39,10.2-8.84,18.35-19.01,18.35
	c-10.5,0-19.36-8.94-19.21-19.4C44.47,213.81,53.19,205.56,64.03,205.78z"/>
</svg>
