<?xml version="1.0" encoding="utf-8"?>
<!-- Generator: Adobe Illustrator 24.0.2, SVG Export Plug-In . SVG Version: 6.00 Build 0)  -->
<svg version="1.1" id="Layer_1" xmlns="http://www.w3.org/2000/svg" xmlns:xlink="http://www.w3.org/1999/xlink" x="0px" y="0px"
	 viewBox="0 0 283.46 283.46" style="enable-background:new 0 0 283.46 283.46;" xml:space="preserve">
<style type="text/css">
	.st0{fill:#FFFFFF;stroke:#000000;stroke-miterlimit:10;}
</style>
<g>
	<path class="st0" d="M159.17,33.45c16.02,0,32.05-0.09,48.07,0.02c25.62,0.17,42.55,16.9,42.69,42.49
		c0.17,32.05,0.21,64.11-0.01,96.16c-0.17,24.64-18,42.31-41.78,41.98c-9.15-0.13-15.05-5.22-15.26-13.16
		c-0.21-7.75,5.76-13.37,14.64-13.79c10.78-0.52,15.36-5.02,15.4-15.89c0.11-31.58,0.1-63.16,0.01-94.74
		c-0.03-11.42-4.93-16.21-16.57-16.24c-31.11-0.09-62.21-0.08-93.32,0c-11.77,0.03-16.22,4.41-16.81,16
		c-0.41,8.11-6.26,14.27-13.59,14.28c-7.3,0.01-13.07-6.25-13.31-14.45c-0.71-24.1,16.55-42.18,41.06-42.6
		C126.64,33.22,142.91,33.45,159.17,33.45z"/>
	<path class="st0" d="M169.64,228.77c0,1.65,0.07,3.3-0.01,4.94c-0.38,7.85-6.1,13.69-13.36,13.68c-7.21-0.01-13.1-5.77-13.33-13.64
		c-0.36-12.62-2.53-24.9-7.74-36.34c-16-35.13-43.77-53.6-81.99-56.84c-2.57-0.22-5.26,0-7.68-0.7c-6.33-1.82-10.4-8.51-9.39-14.78
		c1.1-6.83,6.49-11.52,14.04-11.34c14.43,0.36,28.69,2.16,42.13,7.83C139.8,141.61,165.04,177.71,169.64,228.77z"/>
	<path class="st0" d="M116.11,231.35c0.24,9.55-4.8,15.8-12.93,16.04c-7.6,0.22-13.36-5.8-13.98-14.6
		c-1.58-22.34-16.17-37.06-38.26-38.59c-9.37-0.65-15.38-6.4-14.97-14.31c0.42-8.09,6.61-12.88,16.34-12.61
		C86.27,168.18,115.27,197.3,116.11,231.35z"/>
	<path class="st0" d="M49.72,220.8c7.44,0.15,13.23,6.3,12.94,13.75c-0.28,7.13-6.17,12.82-13.29,12.82
		c-7.34,0-13.52-6.25-13.42-13.55C36.06,226.41,42.15,220.65,49.72,220.8z"/>
</g>
</svg>
